<svg xmlns="http://www.w3.org/2000/svg" width="700" height="285" viewBox="0 0 700 285"><rect width="700" height="285" fill="#F8F6F2"/><text x="28" y="42" font-size="28" font-weight="800" fill="#6B4F4F">01 账号与关联</text><text x="28" y="78" font-size="14" fill="#B08A8F">登录、邀请、绑定、情侣资料设置</text><rect x="30" y="105" width="120" height="150" rx="22" fill="#FFF9F4" stroke="#E9D7D2"/><text x="58" y="145" font-size="18" fill="#6B4F4F">启动页</text><rect x="52" y="205" width="76" height="24" rx="12" fill="#F6BEC8"/><rect x="170" y="105" width="120" height="150" rx="22" fill="#FFF9F4" stroke="#E9D7D2"/><text x="196" y="145" font-size="18" fill="#6B4F4F">登录页</text><rect x="192" y="182" width="76" height="10" rx="5" fill="#E9D7D2"/><rect x="192" y="205" width="76" height="24" rx="12" fill="#F6BEC8"/><rect x="310" y="105" width="120" height="150" rx="22" fill="#FFF9F4" stroke="#E9D7D2"/><text x="332" y="145" font-size="18" fill="#6B4F4F">邀请码</text><rect x="345" y="166" width="50" height="50" rx="8" fill="#E9D7D2"/><rect x="332" y="230" width="76" height="12" rx="6" fill="#F6BEC8"/><rect x="450" y="105" width="120" height="150" rx="22" fill="#FFF9F4" stroke="#E9D7D2"/><text x="472" y="145" font-size="18" fill="#6B4F4F">绑定成功</text><circle cx="510" cy="188" r="28" fill="#FFF0F2"/><text x="501" y="198" font-size="24" fill="#F6BEC8">✓</text><rect x="590" y="105" width="80" height="150" rx="22" fill="#FFF9F4" stroke="#E9D7D2"/><text x="605" y="145" font-size="15" fill="#6B4F4F">资料</text><rect x="608" y="170" width="44" height="8" rx="4" fill="#E9D7D2"/><rect x="608" y="192" width="44" height="8" rx="4" fill="#E9D7D2"/><path d="M610 65 C640 45 660 70 682 52" stroke="#F6BEC8" stroke-width="3" fill="none"/></svg>