<svg xmlns="http://www.w3.org/2000/svg" width="900" height="560" viewBox="0 0 900 560"><rect width="900" height="560" fill="#F8F6F2"/><text x="36" y="48" font-size="30" font-weight="800" fill="#6B4F4F">02 首页 - 记录中心</text><text x="36" y="82" font-size="15" fill="#B08A8F">今日记录入口 · 最近故事流 · 日记/照片/AI快捷创建</text><rect x="60" y="120" width="220" height="390" rx="34" fill="#FFF9F4" stroke="#E9D7D2"/><text x="88" y="158" font-size="18" font-weight="800" fill="#6B4F4F">独家童话</text><rect x="88" y="184" width="164" height="92" rx="24" fill="#FFF0F2"/><text x="108" y="220" font-size="15" fill="#6B4F4F">已经一起走过</text><text x="108" y="254" font-size="30" font-weight="900" fill="#DFA0AC">428 天</text><rect x="88" y="300" width="48" height="54" rx="18" fill="#FFF9F4" stroke="#E9D7D2"/><rect x="146" y="300" width="48" height="54" rx="18" fill="#FFF9F4" stroke="#E9D7D2"/><rect x="204" y="300" width="48" height="54" rx="18" fill="#FFF9F4" stroke="#E9D7D2"/><text x="95" y="336" font-size="12" fill="#6B4F4F">日记</text><text x="153" y="336" font-size="12" fill="#6B4F4F">照片</text><text x="211" y="336" font-size="12" fill="#6B4F4F">AI</text><rect x="88" y="384" width="164" height="52" rx="20" fill="#FFF9F4" stroke="#E9D7D2"/><text x="112" y="416" font-size="13" fill="#6B4F4F">一起散步的傍晚</text><rect x="330" y="120" width="220" height="390" rx="34" fill="#FFF9F4" stroke="#E9D7D2"/><text x="360" y="160" font-size="18" font-weight="800" fill="#6B4F4F">今日晚霞真美</text><rect x="360" y="196" width="160" height="95" rx="20" fill="#FFF0F2"/><text x="380" y="246" font-size="44" fill="#F6BEC8">♡</text><rect x="360" y="320" width="160" height="94" rx="18" fill="#FAF1E6"/><text x="382" y="370" font-size="13" fill="#9B7A7A">富文本日记编辑</text><rect x="360" y="438" width="160" height="34" rx="17" fill="#F6BEC8"/><text x="418" y="460" font-size="13" fill="#fff">保存</text><rect x="600" y="120" width="220" height="390" rx="34" fill="#FFF9F4" stroke="#E9D7D2"/><text x="632" y="160" font-size="18" font-weight="800" fill="#6B4F4F">回忆相册</text><g fill="#FFF0F2" stroke="#E9D7D2"><rect x="632" y="190" width="70" height="78" rx="16"/><rect x="716" y="190" width="70" height="78" rx="16"/><rect x="632" y="282" width="70" height="78" rx="16"/><rect x="716" y="282" width="70" height="78" rx="16"/></g><circle cx="770" cy="450" r="26" fill="#F6BEC8"/><text x="762" y="460" font-size="28" fill="#fff">+</text></svg>