<svg xmlns="http://www.w3.org/2000/svg" width="900" height="560" viewBox="0 0 900 560"><rect width="900" height="560" fill="#F8F6F2"/><text x="36" y="48" font-size="30" font-weight="800" fill="#6B4F4F">03 情侣空间</text><text x="36" y="82" font-size="15" fill="#B08A8F">双人宇宙 · 共享动态流 · 评论互动 · 恋爱天数</text><rect x="80" y="122" width="230" height="390" rx="34" fill="#FFF9F4" stroke="#E9D7D2"/><text x="112" y="162" font-size="18" font-weight="800" fill="#6B4F4F">我们的小时宇宙</text><circle cx="154" cy="218" r="34" fill="#FFF0F2" stroke="#E9D7D2"/><circle cx="236" cy="218" r="34" fill="#FFF0F2" stroke="#E9D7D2"/><text x="185" y="226" font-size="28" fill="#F6BEC8">♡</text><text x="130" y="286" font-size="14" fill="#9B7A7A">一起走过</text><text x="130" y="328" font-size="42" font-weight="900" fill="#DFA0AC">428</text><text x="226" y="328" font-size="16" fill="#6B4F4F">天</text><rect x="112" y="370" width="166" height="72" rx="20" fill="#FFF0F2"/><text x="135" y="410" font-size="13" fill="#6B4F4F">今日互动 3 次</text><rect x="360" y="122" width="230" height="390" rx="34" fill="#FFF9F4" stroke="#E9D7D2"/><text x="392" y="162" font-size="18" font-weight="800" fill="#6B4F4F">动态详情</text><rect x="392" y="190" width="166" height="120" rx="22" fill="#FFF0F2"/><text x="415" y="255" font-size="40" fill="#F6BEC8">照片</text><text x="392" y="345" font-size="16" font-weight="800" fill="#6B4F4F">一起看了日落</text><text x="392" y="375" font-size="12" fill="#9B7A7A">点赞 28 · 评论 6</text><rect x="392" y="416" width="166" height="42" rx="20" fill="#FFF9F4" stroke="#E9D7D2"/><text x="410" y="442" font-size="13" fill="#9B7A7A">写下评论...</text><rect x="640" y="122" width="180" height="390" rx="34" fill="#FFF9F4" stroke="#E9D7D2"/><text x="672" y="162" font-size="18" font-weight="800" fill="#6B4F4F">互动通知</text><g fill="#FFF0F2"><rect x="672" y="200" width="116" height="46" rx="18"/><rect x="672" y="264" width="116" height="46" rx="18"/><rect x="672" y="328" width="116" height="46" rx="18"/></g><text x="690" y="228" font-size="12" fill="#6B4F4F">赞了你的日记</text><text x="690" y="292" font-size="12" fill="#6B4F4F">评论了照片</text><text x="690" y="356" font-size="12" fill="#6B4F4F">关注了纪念日</text></svg>