<svg xmlns="http://www.w3.org/2000/svg" width="900" height="560" viewBox="0 0 900 560"><rect width="900" height="560" fill="#F8F6F2"/><text x="36" y="48" font-size="30" font-weight="800" fill="#6B4F4F">04 AI 童话工坊</text><text x="36" y="82" font-size="15" fill="#B08A8F">AI漫画 · 回忆放映机 · 创作历史 · 风格选择</text><rect x="70" y="120" width="230" height="390" rx="34" fill="#FFF9F4" stroke="#E9D7D2"/><text x="102" y="160" font-size="20" font-weight="800" fill="#6B4F4F">童话工坊</text><rect x="102" y="190" width="166" height="100" rx="24" fill="#FFF0F2"/><text x="128" y="230" font-size="17" font-weight="800" fill="#6B4F4F">AI漫画</text><text x="128" y="258" font-size="12" fill="#9B7A7A">把故事画成漫画</text><rect x="102" y="312" width="166" height="100" rx="24" fill="#FAF1E6"/><text x="128" y="352" font-size="17" font-weight="800" fill="#6B4F4F">回忆放映机</text><text x="128" y="380" font-size="12" fill="#9B7A7A">生成纪念视频</text><rect x="340" y="120" width="230" height="390" rx="34" fill="#FFF9F4" stroke="#E9D7D2"/><text x="372" y="160" font-size="20" font-weight="800" fill="#6B4F4F">AI漫画生成</text><rect x="372" y="190" width="166" height="86" rx="20" fill="#FFF0F2"/><text x="397" y="240" font-size="38" fill="#F6BEC8">人物</text><text x="372" y="310" font-size="14" font-weight="800" fill="#6B4F4F">漫画风格</text><rect x="372" y="330" width="48" height="38" rx="15" fill="#F6BEC8"/><rect x="432" y="330" width="48" height="38" rx="15" fill="#FFF9F4" stroke="#E9D7D2"/><rect x="492" y="330" width="48" height="38" rx="15" fill="#FFF9F4" stroke="#E9D7D2"/><rect x="372" y="430" width="166" height="36" rx="18" fill="#F6BEC8"/><text x="424" y="453" font-size="13" fill="#fff">开始生成</text><rect x="620" y="120" width="230" height="390" rx="34" fill="#FFF9F4" stroke="#E9D7D2"/><text x="652" y="160" font-size="20" font-weight="800" fill="#6B4F4F">创作历史</text><g fill="#FFF0F2" stroke="#E9D7D2"><rect x="652" y="196" width="74" height="80" rx="18"/><rect x="742" y="196" width="74" height="80" rx="18"/><rect x="652" y="300" width="74" height="80" rx="18"/><rect x="742" y="300" width="74" height="80" rx="18"/></g><text x="660" y="420" font-size="13" fill="#6B4F4F">已生成 8 个作品</text><circle cx="790" cy="452" r="24" fill="#D8B384"/><text x="782" y="462" font-size="26" fill="#fff">▶</text></svg>