<svg xmlns="http://www.w3.org/2000/svg" width="900" height="560" viewBox="0 0 900 560"><rect width="900" height="560" fill="#F8F6F2"/><text x="36" y="48" font-size="30" font-weight="800" fill="#6B4F4F">05 AI 创作流程</text><text x="36" y="82" font-size="15" fill="#B08A8F">生成进度 · 视频预览 · 导出完成 · 创作记录</text><rect x="60" y="120" width="180" height="390" rx="34" fill="#FFF9F4" stroke="#E9D7D2"/><text x="92" y="160" font-size="18" font-weight="800" fill="#6B4F4F">生成中</text><circle cx="150" cy="252" r="62" fill="#FFF0F2"/><text x="120" y="264" font-size="34" font-weight="900" fill="#DFA0AC">60%</text><rect x="92" y="350" width="116" height="10" rx="5" fill="#E9D7D2"/><rect x="92" y="350" width="70" height="10" rx="5" fill="#F6BEC8"/><text x="95" y="408" font-size="12" fill="#9B7A7A">正在绘制童话页面</text><rect x="270" y="120" width="180" height="390" rx="34" fill="#FFF9F4" stroke="#E9D7D2"/><text x="302" y="160" font-size="18" font-weight="800" fill="#6B4F4F">视频预览</text><rect x="302" y="198" width="116" height="130" rx="22" fill="#FFF0F2"/><circle cx="360" cy="263" r="26" fill="#D8B384"/><text x="351" y="274" font-size="28" fill="#fff">▶</text><rect x="302" y="360" width="116" height="34" rx="17" fill="#F6BEC8"/><text x="334" y="382" font-size="12" fill="#fff">导出</text><rect x="480" y="120" width="180" height="390" rx="34" fill="#FFF9F4" stroke="#E9D7D2"/><text x="512" y="160" font-size="18" font-weight="800" fill="#6B4F4F">导出完成</text><rect x="512" y="196" width="116" height="100" rx="20" fill="#FFF0F2"/><text x="544" y="254" font-size="42" fill="#F6BEC8">✓</text><rect x="512" y="330" width="116" height="32" rx="16" fill="#F6BEC8"/><text x="538" y="351" font-size="12" fill="#fff">保存作品</text><rect x="512" y="376" width="116" height="32" rx="16" fill="#FFF9F4" stroke="#E9D7D2"/><text x="544" y="397" font-size="12" fill="#6B4F4F">分享</text><rect x="690" y="120" width="160" height="390" rx="34" fill="#FFF9F4" stroke="#E9D7D2"/><text x="718" y="160" font-size="18" font-weight="800" fill="#6B4F4F">创作记录</text><g fill="#FFF0F2"><rect x="720" y="200" width="100" height="54" rx="18"/><rect x="720" y="276" width="100" height="54" rx="18"/><rect x="720" y="352" width="100" height="54" rx="18"/></g><text x="738" y="232" font-size="12" fill="#6B4F4F">漫画作品</text><text x="738" y="308" font-size="12" fill="#6B4F4F">视频草稿</text><text x="738" y="384" font-size="12" fill="#6B4F4F">纪念短片</text></svg>