<svg xmlns="http://www.w3.org/2000/svg" width="900" height="560" viewBox="0 0 900 560"><rect width="900" height="560" fill="#F8F6F2"/><text x="36" y="48" font-size="30" font-weight="800" fill="#6B4F4F">06 纪念日管理</text><text x="36" y="82" font-size="15" fill="#B08A8F">重要章节 · 添加编辑 · 倒计时 · 专属模板</text><rect x="80" y="120" width="220" height="390" rx="34" fill="#FFF9F4" stroke="#E9D7D2"/><text x="112" y="160" font-size="20" font-weight="800" fill="#6B4F4F">重要章节</text><rect x="112" y="196" width="156" height="62" rx="20" fill="#FFF0F2"/><text x="132" y="232" font-size="13" fill="#6B4F4F">第一次见面</text><text x="226" y="232" font-size="16" font-weight="900" fill="#DFA0AC">428</text><rect x="112" y="276" width="156" height="62" rx="20" fill="#FFF9F4" stroke="#E9D7D2"/><text x="132" y="312" font-size="13" fill="#6B4F4F">第一次旅行</text><text x="226" y="312" font-size="16" font-weight="900" fill="#DFA0AC">24</text><circle cx="250" cy="448" r="26" fill="#F6BEC8"/><text x="242" y="458" font-size="28" fill="#fff">+</text><rect x="350" y="120" width="220" height="390" rx="34" fill="#FFF9F4" stroke="#E9D7D2"/><text x="382" y="160" font-size="20" font-weight="800" fill="#6B4F4F">添加纪念日</text><text x="382" y="210" font-size="13" fill="#9B7A7A">名称</text><rect x="382" y="226" width="156" height="42" rx="16" fill="#FFF9F4" stroke="#E9D7D2"/><text x="382" y="292" font-size="13" fill="#9B7A7A">日期</text><rect x="382" y="308" width="156" height="42" rx="16" fill="#FFF9F4" stroke="#E9D7D2"/><text x="382" y="374" font-size="13" fill="#9B7A7A">模板</text><rect x="382" y="390" width="46" height="46" rx="16" fill="#FFF0F2"/><rect x="442" y="390" width="46" height="46" rx="16" fill="#FFF0F2"/><rect x="502" y="390" width="36" height="46" rx="16" fill="#FFF0F2"/><rect x="650" y="120" width="180" height="390" rx="34" fill="#FFF9F4" stroke="#E9D7D2"/><text x="682" y="160" font-size="20" font-weight="800" fill="#6B4F4F">倒计时</text><text x="700" y="230" font-size="16" fill="#6B4F4F">在一起纪念日</text><text x="690" y="300" font-size="52" font-weight="900" fill="#8B5E4B">520</text><text x="750" y="300" font-size="18" fill="#6B4F4F">天</text><rect x="682" y="380" width="116" height="36" rx="18" fill="#F6BEC8"/><text x="712" y="403" font-size="12" fill="#fff">记录这一天</text></svg>