<svg xmlns="http://www.w3.org/2000/svg" width="900" height="560" viewBox="0 0 900 560"><rect width="900" height="560" fill="#F8F6F2"/><text x="36" y="48" font-size="30" font-weight="800" fill="#6B4F4F">07 数据与导出</text><text x="36" y="82" font-size="15" fill="#B08A8F">PDF导出 · 导出预览 · 数据备份 · 存储空间</text><rect x="70" y="120" width="200" height="390" rx="34" fill="#FFF9F4" stroke="#E9D7D2"/><text x="102" y="160" font-size="19" font-weight="800" fill="#6B4F4F">选择导出内容</text><g fill="#FFF0F2"><rect x="102" y="200" width="136" height="44" rx="16"/><rect x="102" y="264" width="136" height="44" rx="16"/><rect x="102" y="328" width="136" height="44" rx="16"/></g><text x="124" y="228" font-size="13" fill="#6B4F4F">日记</text><text x="124" y="292" font-size="13" fill="#6B4F4F">照片</text><text x="124" y="356" font-size="13" fill="#6B4F4F">纪念日</text><rect x="102" y="420" width="136" height="36" rx="18" fill="#F6BEC8"/><text x="150" y="443" font-size="12" fill="#fff">下一步</text><rect x="330" y="120" width="220" height="390" rx="34" fill="#FFF9F4" stroke="#E9D7D2"/><text x="362" y="160" font-size="19" font-weight="800" fill="#6B4F4F">导出预览</text><rect x="374" y="200" width="132" height="170" rx="16" fill="#FFF0F2" stroke="#E9D7D2"/><text x="404" y="250" font-size="15" fill="#6B4F4F">我们的回忆集</text><text x="408" y="300" font-size="44" fill="#F6BEC8">♡</text><rect x="374" y="410" width="132" height="36" rx="18" fill="#F6BEC8"/><text x="414" y="433" font-size="12" fill="#fff">导出PDF</text><rect x="610" y="120" width="220" height="390" rx="34" fill="#FFF9F4" stroke="#E9D7D2"/><text x="642" y="160" font-size="19" font-weight="800" fill="#6B4F4F">数据备份</text><rect x="642" y="200" width="156" height="62" rx="20" fill="#FFF0F2"/><text x="666" y="237" font-size="13" fill="#6B4F4F">云备份 已开启</text><rect x="642" y="284" width="156" height="62" rx="20" fill="#FFF9F4" stroke="#E9D7D2"/><text x="666" y="321" font-size="13" fill="#6B4F4F">本地备份</text><rect x="642" y="368" width="156" height="62" rx="20" fill="#FAF1E6"/><text x="666" y="405" font-size="13" fill="#6B4F4F">存储 3.2GB/10GB</text></svg>