<svg xmlns="http://www.w3.org/2000/svg" width="1200" height="560" viewBox="0 0 1200 560"><rect width="1200" height="560" fill="#F8F6F2"/><text x="36" y="48" font-size="30" font-weight="800" fill="#6B4F4F">08 更多功能</text><text x="36" y="82" font-size="15" fill="#B08A8F">搜索 · 时光胶囊 · 标签管理 · 草稿箱 · 分享 · 会员 · 帮助反馈 · 设置 · 空状态</text><g fill="#FFF9F4" stroke="#E9D7D2"><rect x="60" y="120" width="150" height="320" rx="30"/><rect x="235" y="120" width="150" height="320" rx="30"/><rect x="410" y="120" width="150" height="320" rx="30"/><rect x="585" y="120" width="150" height="320" rx="30"/><rect x="760" y="120" width="150" height="320" rx="30"/><rect x="935" y="120" width="205" height="320" rx="30"/></g><text x="92" y="160" font-size="18" font-weight="800" fill="#6B4F4F">搜索页</text><rect x="88" y="195" width="94" height="28" rx="14" fill="#FFF0F2"/><rect x="88" y="245" width="94" height="36" rx="16" fill="#FAF1E6"/><rect x="88" y="300" width="94" height="36" rx="16" fill="#FFF0F2"/><text x="258" y="160" font-size="18" font-weight="800" fill="#6B4F4F">时光胶囊</text><rect x="270" y="205" width="80" height="80" rx="24" fill="#FFF0F2"/><text x="292" y="252" font-size="34" fill="#F6BEC8">♡</text><rect x="270" y="340" width="80" height="30" rx="15" fill="#F6BEC8"/><text x="434" y="160" font-size="18" font-weight="800" fill="#6B4F4F">标签管理</text><g fill="#FFF0F2"><rect x="438" y="200" width="48" height="28" rx="14"/><rect x="496" y="200" width="36" height="28" rx="14"/><rect x="438" y="246" width="60" height="28" rx="14"/><rect x="438" y="292" width="48" height="28" rx="14"/></g><text x="618" y="160" font-size="18" font-weight="800" fill="#6B4F4F">草稿箱</text><rect x="620" y="205" width="80" height="52" rx="18" fill="#FFF0F2"/><rect x="620" y="280" width="80" height="52" rx="18" fill="#FAF1E6"/><circle cx="660" cy="382" r="18" fill="#F6BEC8"/><text x="792" y="160" font-size="18" font-weight="800" fill="#6B4F4F">会员权益</text><rect x="792" y="205" width="86" height="90" rx="22" fill="#F7E8D5"/><text x="812" y="256" font-size="28" fill="#8B5E4B">VIP</text><rect x="792" y="340" width="86" height="30" rx="15" fill="#F6BEC8"/><text x="980" y="160" font-size="18" font-weight="800" fill="#6B4F4F">帮助 / 设置 / 空状态</text><rect x="980" y="205" width="112" height="38" rx="17" fill="#FFF0F2"/><rect x="980" y="260" width="112" height="38" rx="17" fill="#FFF9F4" stroke="#E9D7D2"/><rect x="980" y="315" width="112" height="38" rx="17" fill="#FFF0F2"/><text x="1010" y="420" font-size="14" fill="#9B7A7A">这里还是空空的哦</text></svg>