<svg xmlns="http://www.w3.org/2000/svg" width="390" height="844" viewBox="0 0 390 844"><rect width="390" height="844" fill="#F8F6F2"/><text x="40" y="86" font-size="30" font-weight="800" fill="#6B4F4F">恋爱漫画</text><text x="42" y="120" font-size="14" fill="#B08A8F">选择素材、风格和人设</text><rect x="40" y="156" width="310" height="150" rx="30" fill="#FFF0F2" stroke="#E9D7D2"/><text x="75" y="218" font-size="22" font-weight="800" fill="#6B4F4F">把故事画成漫画</text><text x="75" y="254" font-size="13" fill="#9B7A7A">AI 正在等一段温柔的回忆</text><text x="40" y="354" font-size="20" font-weight="800" fill="#6B4F4F">选择素材</text><g fill="#FFF9F4" stroke="#E9D7D2"><rect x="40" y="380" width="94" height="50" rx="18"/><rect x="148" y="380" width="94" height="50" rx="18"/><rect x="256" y="380" width="94" height="50" rx="18"/></g><text x="62" y="411" font-size="13" fill="#6B4F4F">日记</text><text x="170" y="411" font-size="13" fill="#6B4F4F">照片</text><text x="278" y="411" font-size="13" fill="#6B4F4F">文本</text><text x="40" y="482" font-size="20" font-weight="800" fill="#6B4F4F">漫画风格</text><rect x="40" y="510" width="94" height="50" rx="18" fill="#F6BEC8"/><rect x="148" y="510" width="94" height="50" rx="18" fill="#FFF9F4" stroke="#E9D7D2"/><rect x="256" y="510" width="94" height="50" rx="18" fill="#FFF9F4" stroke="#E9D7D2"/><text x="62" y="541" font-size="13" fill="#fff">绘本</text><text x="170" y="541" font-size="13" fill="#6B4F4F">暖漫</text><text x="278" y="541" font-size="13" fill="#6B4F4F">贴纸</text><rect x="40" y="596" width="310" height="84" rx="24" fill="#FFF9F4" stroke="#E9D7D2"/><text x="70" y="646" font-size="15" font-weight="800" fill="#6B4F4F">人设管理</text><rect x="58" y="724" width="274" height="54" rx="27" fill="#F6BEC8"/><text x="126" y="758" font-size="16" font-weight="800" fill="#fff">开始生成童话漫画</text></svg>