<svg xmlns="http://www.w3.org/2000/svg" width="390" height="844" viewBox="0 0 390 844"><rect width="390" height="844" fill="#F8F6F2"/><text x="40" y="86" font-size="30" font-weight="800" fill="#6B4F4F">标签管理</text><text x="42" y="120" font-size="14" fill="#B08A8F">整理你们的回忆关键词</text><rect x="40" y="160" width="310" height="520" rx="34" fill="#FFF9F4" stroke="#E9D7D2"/><text x="66" y="210" font-size="16" font-weight="800" fill="#6B4F4F">常用标签</text><g fill="#FFF0F2"><rect x="66" y="240" width="66" height="34" rx="17"/><rect x="144" y="240" width="66" height="34" rx="17"/><rect x="222" y="240" width="66" height="34" rx="17"/><rect x="66" y="296" width="66" height="34" rx="17"/><rect x="144" y="296" width="66" height="34" rx="17"/><rect x="222" y="296" width="66" height="34" rx="17"/></g><text x="84" y="263" font-size="13" fill="#B08A8F">约会</text><text x="162" y="263" font-size="13" fill="#B08A8F">旅行</text><text x="240" y="263" font-size="13" fill="#B08A8F">日常</text><text x="84" y="319" font-size="13" fill="#B08A8F">美食</text><text x="162" y="319" font-size="13" fill="#B08A8F">电影</text><text x="240" y="319" font-size="13" fill="#B08A8F">惊喜</text><rect x="66" y="400" width="258" height="48" rx="18" fill="#FFF9F4" stroke="#E9D7D2"/><text x="92" y="431" font-size="14" fill="#9B7A7A">新建标签</text><rect x="58" y="720" width="274" height="54" rx="27" fill="#F6BEC8"/><text x="160" y="754" font-size="16" font-weight="800" fill="#fff">保存标签</text></svg>