<svg xmlns="http://www.w3.org/2000/svg" width="390" height="844" viewBox="0 0 390 844"><rect width="390" height="844" fill="#F8F6F2"/><text x="40" y="86" font-size="30" font-weight="800" fill="#6B4F4F">回忆相册</text><text x="42" y="120" font-size="14" fill="#B08A8F">像翻看一本贴满照片的绘本</text><rect x="40" y="154" width="76" height="36" rx="18" fill="#F6BEC8"/><text x="64" y="177" font-size="13" fill="#fff">网格</text><rect x="128" y="154" width="92" height="36" rx="18" fill="#FFF9F4" stroke="#E9D7D2"/><text x="152" y="177" font-size="13" fill="#6B4F4F">时间线</text><g stroke="#E9D7D2"><rect x="40" y="224" width="142" height="190" rx="26" fill="#FFF9F4"/><rect x="208" y="224" width="142" height="156" rx="26" fill="#FFF9F4"/><rect x="40" y="438" width="142" height="156" rx="26" fill="#FFF9F4"/><rect x="208" y="404" width="142" height="190" rx="26" fill="#FFF9F4"/></g><g fill="#FFF0F2"><rect x="58" y="248" width="106" height="92" rx="20"/><rect x="226" y="248" width="106" height="70" rx="20"/><rect x="58" y="462" width="106" height="70" rx="20"/><rect x="226" y="428" width="106" height="92" rx="20"/></g><text x="62" y="374" font-size="13" fill="#6B4F4F">奶油蛋糕和你</text><text x="230" y="350" font-size="13" fill="#6B4F4F">一起散步</text><circle cx="320" cy="740" r="28" fill="#F6BEC8"/><text x="311" y="751" font-size="30" fill="#fff">+</text></svg>